<svg xmlns="http://www.w3.org/2000/svg" xmlns:xlink="http://www.w3.org/1999/xlink" width="85" height="20" role="img"
     aria-label="Fisht Docs">
  <title>Fisht Npm</title>
  <linearGradient id="s" x2="0" y2="100%">
    <stop offset="0" stop-color="#bbb" stop-opacity=".1"/>
    <stop offset="1" stop-opacity=".1"/>
  </linearGradient>
  <clipPath id="r">
    <rect width="85" height="20" rx="5" fill="#fff"/>
  </clipPath>
  <g clip-path="url(#r)">
    <rect width="0" height="20" fill="#555"/>
    <rect x="0" width="85" height="20" fill="#18181b"/>
    <rect width="85" height="20" fill="url(#s)"/>
  </g>
  <g fill="#fff" text-anchor="middle" font-family="Verdana,Geneva,DejaVu Sans,sans-serif"
     text-rendering="geometricPrecision" font-size="110">
    <svg xmlns="http://www.w3.org/2000/svg" x="7" y="3" width="13" height="13" viewBox="0 0 128 128"><path fill="#cb3837" d="M0 7.062C0 3.225 3.225 0 7.062 0h113.88c3.838 0 7.063 3.225 7.063 7.062v113.88c0 3.838-3.225 7.063-7.063 7.063H7.062c-3.837 0-7.062-3.225-7.062-7.063zm23.69 97.518h40.395l.05-58.532h19.494l-.05 58.581h19.543l.05-78.075l-78.075-.1l-.1 78.126z"/><path fill="#fff" d="M25.105 65.52V26.512H40.96c8.72 0 26.274.034 39.008.075l23.153.075v77.866H83.645v-58.54H64.057v58.54H25.105z"/></svg>

    <text aria-hidden="true" x="515" y="150" fill="#010101" fill-opacity=".3" transform="scale(.1)" textLength="570">
      Fisht Npm
    </text>
    <text x="515" y="140" transform="scale(.1)" fill="#fff" textLength="570">Fisht Npm</text>
  </g>
</svg>